<?xml version="1.0" encoding="utf-8"?>
<svg viewBox="0 0 472 102" xmlns="http://www.w3.org/2000/svg">
  <path opacity="1.000000" stroke="none" d="M 344.519 311.2 C 232.547 311.2 121.254 311.2 9.962 311.2 C 9.962 270.4 9.962 229.601 9.962 188.801 C 169.986 188.801 330.012 188.801 490.038 188.801 C 490.038 229.601 490.038 270.4 490.038 311.2 C 441.758 311.2 393.479 311.2 344.519 311.2 M 261.001 260.618 C 257.914 260.618 254.826 260.618 251.645 260.618 C 251.645 265.156 251.645 268.85 251.645 272.884 C 264.588 272.884 277.023 273.153 289.433 272.725 C 293.334 272.59 297.54 271.234 300.968 269.303 C 310.663 263.842 311.375 251.321 302.74 244.295 C 301.431 243.229 300.031 242.27 298.618 241.22 C 304.814 235.605 306.709 230.906 305.161 224.966 C 303.481 218.521 298.573 214.313 292.679 213.951 C 279.042 213.115 265.319 213.686 251.705 213.686 C 251.705 217.172 251.705 220.86 251.705 224.947 C 260.401 224.947 268.531 224.796 276.651 225.005 C 281.334 225.126 288.241 223.5 288.081 230.829 C 287.927 237.918 281.035 236.364 276.355 236.508 C 268.1 236.762 259.83 236.579 251.67 236.579 C 251.67 241.144 251.67 244.626 251.67 248.465 C 262.373 248.465 272.54 248.432 282.709 248.483 C 286.751 248.502 290.971 249.13 291.203 254.153 C 291.463 259.741 286.91 260.445 282.694 260.559 C 275.909 260.743 269.116 260.614 261.001 260.618 M 92.07 227.816 C 90.186 219.042 85.44 214.046 76.563 213.414 C 65.07 212.595 53.508 212.533 41.98 212.59 C 40.469 212.598 38.147 215.007 37.667 216.715 C 36.998 219.095 37.713 221.864 37.863 225.056 C 41.101 225.056 43.552 225.051 46.003 225.057 C 53.247 225.073 60.533 224.675 67.716 225.349 C 70.134 225.575 73.716 228.169 74.271 230.323 C 75.37 234.584 71.558 236.025 67.932 236.309 C 64.104 236.609 60.243 236.537 56.397 236.558 C 50.345 236.592 44.293 236.566 37.886 236.566 C 37.886 240.811 37.886 244.283 37.886 248.475 C 40.962 248.475 43.62 248.47 46.276 248.476 C 54.428 248.492 62.611 248.114 70.711 248.775 C 73.162 248.975 75.377 252.053 77.701 253.813 C 75.814 255.946 74.304 259.055 71.943 259.971 C 68.952 261.129 65.271 260.606 61.886 260.631 C 53.861 260.694 45.834 260.652 37.965 260.652 C 37.965 265.415 37.965 268.91 37.965 272.722 C 51.562 272.722 64.659 272.929 77.739 272.575 C 80.963 272.488 84.417 271.064 87.278 269.412 C 97.016 263.791 97.867 251.577 89.261 244.362 C 87.964 243.274 86.586 242.283 86.485 242.206 C 88.557 237.244 90.314 233.029 92.07 227.816 M 343.243 259.357 C 335.398 259.69 333.492 258.151 333.252 250.306 C 333.009 242.463 333.199 234.605 333.199 226.558 C 327.227 226.558 322.166 226.558 317.068 226.558 C 317.068 237.166 316.516 247.347 317.22 257.441 C 317.964 268.091 326.953 274.896 337.593 273.467 C 341.731 272.911 345.704 271.12 348.762 270.191 C 354.246 275.1 360.144 272.084 365.691 272.837 C 365.691 256.887 365.691 241.828 365.691 226.542 C 360.226 226.542 355.166 226.542 349.593 226.542 C 349.593 233.743 350.213 240.584 349.363 247.236 C 348.844 251.301 346.063 255.076 343.243 259.357 M 121.101 244.131 C 119.137 239.318 117.356 234.415 115.105 229.741 C 114.364 228.203 112.502 226.367 110.986 226.199 C 106.638 225.723 102.204 226.032 96.959 226.032 C 103.298 241.124 109.205 255.03 114.972 268.995 C 117.394 274.864 114.757 278.158 108.53 277.208 C 106.812 276.946 105.165 276.212 103.069 275.566 C 101.286 279.13 99.608 282.487 97.986 285.733 C 109.403 294.767 124.452 291.388 130.583 278.072 C 137.671 262.677 143.824 246.851 150.334 231.192 C 150.897 229.836 151.104 228.332 151.485 226.866 C 138.015 224.355 137.474 224.615 132.824 235.863 C 130.472 241.554 128.177 247.267 125.309 254.312 C 123.544 250.09 122.499 247.597 121.101 244.131 M 225.332 273.135 C 229.952 271.286 234.572 269.436 239.842 267.325 C 235.199 260.698 232.2 256.443 224.367 260.27 C 218.12 263.32 212.618 260.251 209.812 253.803 C 220.867 253.803 231.543 253.803 242.215 253.803 C 243.668 243.351 241.178 235.077 232.895 229.86 C 223.375 223.861 213.122 223.613 203.33 229.495 C 194.737 234.656 191.341 242.665 192.278 252.576 C 193.581 266.339 207.639 275.431 225.332 273.135 M 453.839 226.089 C 443.503 226.089 433.169 226.089 422.702 226.089 C 422.702 230.607 422.702 234.154 422.702 238.685 C 429.297 238.685 435.625 238.685 443.215 238.685 C 436.865 246.031 431.869 252.447 426.18 258.175 C 421.984 262.402 421.195 266.894 422.474 272.425 C 436.601 272.425 450.691 272.425 464.935 272.425 C 464.935 268.351 464.935 264.797 464.935 260.438 C 458.033 260.438 451.397 260.438 442.823 260.438 C 449.438 252.793 454.587 246.327 460.3 240.408 C 464.402 236.158 465.036 231.718 463.487 226.089 C 460.534 226.089 457.84 226.089 453.839 226.089 M 374.03 269.504 C 375.237 270.648 376.429 272.764 377.658 272.787 C 390.532 273.029 403.411 272.937 416.671 272.937 C 416.671 268.745 416.671 264.989 416.671 260.297 C 409.722 260.297 402.958 260.297 394.958 260.297 C 401.435 252.803 406.623 246.226 412.444 240.266 C 416.437 236.176 417.099 231.889 415.861 226.659 C 402.062 226.659 388.433 226.659 374.81 226.659 C 374.81 230.773 374.81 234.32 374.81 238.737 C 381.261 238.737 387.419 238.737 395.209 238.737 C 388.493 246.478 382.69 252.711 377.485 259.41 C 375.596 261.841 375.134 265.381 374.03 269.504 M 184.656 273.162 C 186.364 272.363 188.071 271.564 189.94 270.689 C 188.517 266.62 187.352 263.286 186.196 259.979 C 176.124 263.07 174.467 258.397 177.046 240.617 C 180.091 240.376 183.168 240.132 186.314 239.883 C 186.314 235.753 186.314 232.066 186.314 228.359 C 182.736 228.09 179.664 227.86 176.39 227.614 C 176.154 223.583 175.946 220.062 175.721 216.271 C 170.318 216.271 165.291 216.271 159.993 216.271 C 159.763 220.247 159.559 223.77 159.341 227.527 C 157.14 227.907 155.237 228.237 153.247 228.581 C 153.247 232.512 153.247 236.022 153.247 239.858 C 155.448 240.187 157.346 240.472 159.686 240.823 C 159.686 245.034 159.671 248.842 159.688 252.65 C 159.764 269.133 167.167 275.548 184.656 273.162 Z" style="fill: none;"/>
  <path fill="#494949" opacity="1.000000" stroke="none" d="M 246.503 59.936 C 253.956 59.932 260.749 60.061 267.534 59.877 C 271.75 59.763 276.303 59.059 276.043 53.471 C 275.811 48.448 271.591 47.82 267.549 47.801 C 257.38 47.75 247.213 47.783 236.51 47.783 C 236.51 43.944 236.51 40.462 236.51 35.897 C 244.67 35.897 252.94 36.08 261.195 35.826 C 265.875 35.682 272.767 37.236 272.921 30.147 C 273.081 22.818 266.174 24.444 261.491 24.323 C 253.371 24.114 245.241 24.265 236.545 24.265 C 236.545 20.178 236.545 16.49 236.545 13.004 C 250.159 13.004 263.882 12.433 277.519 13.269 C 283.413 13.631 288.321 17.839 290.001 24.284 C 291.549 30.224 289.654 34.923 283.458 40.538 C 284.871 41.588 286.271 42.547 287.58 43.613 C 296.215 50.639 295.503 63.16 285.808 68.621 C 282.38 70.552 278.174 71.908 274.273 72.043 C 261.863 72.471 249.428 72.202 236.485 72.202 C 236.485 68.168 236.485 64.474 236.485 59.936 C 239.666 59.936 242.754 59.936 246.503 59.936 Z" style=""/>
  <path fill="#494949" opacity="1.000000" stroke="none" d="M 328.61 58.488 C 330.903 54.394 333.684 50.619 334.203 46.554 C 335.053 39.902 334.433 33.061 334.433 25.86 C 340.006 25.86 345.066 25.86 350.531 25.86 C 350.531 41.146 350.531 56.205 350.531 72.155 C 344.984 71.402 339.086 74.418 333.602 69.509 C 330.544 70.438 326.571 72.229 322.433 72.785 C 311.793 74.214 302.804 67.409 302.06 56.759 C 301.356 46.665 301.908 36.484 301.908 25.876 C 307.006 25.876 312.067 25.876 318.039 25.876 C 318.039 33.923 317.849 41.781 318.092 49.624 C 318.332 57.469 320.238 59.008 328.61 58.488 Z" style=""/>
  <path opacity="1.000000" stroke="none" d="M 106.119 43.936 C 107.339 46.915 108.384 49.408 110.149 53.63 C 113.017 46.585 115.312 40.872 117.664 35.181 C 122.314 23.933 122.855 23.673 136.325 26.184 C 135.944 27.65 135.737 29.154 135.174 30.51 C 128.664 46.169 122.511 61.995 115.423 77.39 C 109.292 90.706 94.243 94.085 82.826 85.051 C 84.448 81.805 86.126 78.448 87.909 74.884 C 90.005 75.53 91.652 76.264 93.37 76.526 C 99.597 77.476 102.234 74.182 99.812 68.313 C 94.045 54.348 88.138 40.442 81.799 25.35 C 87.044 25.35 91.478 25.041 95.826 25.517 C 97.342 25.685 99.204 27.521 99.945 29.059 C 102.196 33.733 103.977 38.636 106.119 43.936 Z" style="fill: rgb(175, 19, 36);"/>
  <path opacity="1.000000" stroke="none" d="M 209.613 72.498 C 192.479 74.749 178.421 65.657 177.118 51.894 C 176.181 41.983 179.577 33.974 188.17 28.813 C 197.962 22.931 208.215 23.179 217.735 29.178 C 226.018 34.395 228.508 42.669 227.055 53.121 C 216.383 53.121 205.707 53.121 194.652 53.121 C 197.458 59.569 202.96 62.638 209.207 59.588 C 217.04 55.761 220.039 60.016 224.682 66.643 C 219.412 68.754 214.792 70.604 209.613 72.498 M 211.388 44.454 C 211.982 37.836 207.059 36.363 202.443 36.348 C 197.931 36.335 194.01 38.746 193.794 44.798 C 199.594 44.798 204.985 44.798 211.388 44.454 Z" style="fill: rgb(175, 19, 36);"/>
  <path fill="#494949" opacity="1.000000" stroke="none" d="M 439.333 25.407 C 442.68 25.407 445.374 25.407 448.327 25.407 C 449.876 31.036 449.242 35.476 445.14 39.726 C 439.427 45.645 434.278 52.111 427.663 59.756 C 436.237 59.756 442.873 59.756 449.775 59.756 C 449.775 64.115 449.775 67.669 449.775 71.743 C 435.531 71.743 421.441 71.743 407.314 71.743 C 406.035 66.212 406.824 61.72 411.02 57.493 C 416.709 51.765 421.705 45.349 428.055 38.003 C 420.465 38.003 414.137 38.003 407.542 38.003 C 407.542 33.472 407.542 29.925 407.542 25.407 C 418.009 25.407 428.343 25.407 439.333 25.407 Z" style=""/>
  <path fill="#494949" opacity="1.000000" stroke="none" d="M 358.865 68.278 C 359.974 64.699 360.436 61.159 362.325 58.728 C 367.53 52.029 373.333 45.796 380.049 38.055 C 372.259 38.055 366.101 38.055 359.65 38.055 C 359.65 33.638 359.65 30.091 359.65 25.977 C 373.273 25.977 386.902 25.977 400.701 25.977 C 401.939 31.207 401.277 35.494 397.284 39.584 C 391.463 45.544 386.275 52.121 379.798 59.615 C 387.798 59.615 394.562 59.615 401.511 59.615 C 401.511 64.307 401.511 68.063 401.511 72.255 C 388.251 72.255 375.372 72.347 362.498 72.105 C 361.269 72.082 360.077 69.966 358.865 68.278 Z" style=""/>
  <path opacity="1.000000" stroke="none" d="M 168.963 72.588 C 152.007 74.866 144.604 68.451 144.528 51.968 C 144.511 48.16 144.526 44.352 144.526 40.141 C 142.186 39.79 140.288 39.505 138.087 39.176 C 138.087 35.34 138.087 31.83 138.087 27.899 C 140.077 27.555 141.98 27.225 144.181 26.845 C 144.399 23.088 144.603 19.565 144.833 15.589 C 150.131 15.589 155.158 15.589 160.561 15.589 C 160.786 19.38 160.994 22.901 161.23 26.932 C 164.504 27.178 167.576 27.408 171.154 27.677 C 171.154 31.384 171.154 35.071 171.154 39.201 C 168.008 39.45 164.931 39.694 161.886 39.935 C 159.307 57.715 160.964 62.388 171.036 59.297 C 172.192 62.604 173.357 65.938 174.78 70.007 C 172.911 70.882 171.204 71.681 168.963 72.588 Z" style="fill: rgb(175, 19, 36);"/>
  <path opacity="1.000000" stroke="none" d="M 208.653 44.66 C 202.756 44.833 197.365 44.833 191.565 44.833 C 191.781 38.781 195.702 36.37 200.214 36.383 C 204.83 36.398 209.753 37.871 208.653 44.66 Z" style="fill: none;"/>
  <path opacity="1.000000" stroke="none" d="M 34.754 59.915 C 42.207 59.911 49 60.04 55.785 59.856 C 60.001 59.742 64.554 59.038 64.294 53.45 C 64.062 48.427 59.842 47.799 55.8 47.78 C 45.631 47.729 35.464 47.762 24.761 47.762 C 24.761 43.923 24.761 40.441 24.761 35.876 C 32.921 35.876 41.191 36.059 49.446 35.805 C 54.126 35.661 61.018 37.215 61.172 30.126 C 61.332 22.797 54.425 24.423 49.742 24.302 C 41.622 24.093 33.492 24.244 24.796 24.244 C 24.796 20.157 24.796 16.469 24.796 12.983 C 38.41 12.983 52.133 12.412 65.77 13.248 C 71.664 13.61 76.572 17.818 78.252 24.263 C 79.8 30.203 77.905 34.902 71.709 40.517 C 73.122 41.567 74.522 42.526 75.831 43.592 C 84.466 50.618 83.754 63.139 74.059 68.6 C 70.631 70.531 66.425 71.887 62.524 72.022 C 50.114 72.45 37.679 72.181 24.736 72.181 C 24.736 68.147 24.736 64.453 24.736 59.915 C 27.917 59.915 31.005 59.915 34.754 59.915 Z" style="fill: rgb(175, 19, 36);"/>
</svg>